<?xml version="1.0" encoding="UTF-8" standalone="no"?>
<svg
   xmlns:dc="http://purl.org/dc/elements/1.1/"
   xmlns:cc="http://creativecommons.org/ns#"
   xmlns:rdf="http://www.w3.org/1999/02/22-rdf-syntax-ns#"
   xmlns:svg="http://www.w3.org/2000/svg"
   xmlns="http://www.w3.org/2000/svg"
   xmlns:sodipodi="http://sodipodi.sourceforge.net/DTD/sodipodi-0.dtd"
   xmlns:inkscape="http://www.inkscape.org/namespaces/inkscape"
   inkscape:version="1.0 (4035a4fb49, 2020-05-01)"
   sodipodi:docname="Titulo.svg"
   id="svg8"
   version="1.1"
   viewBox="0 0 42.333332 13.229167"
   height="50"
   width="160">
  <defs
     id="defs2">
    <rect
       id="rect12"
       height="102.05357"
       width="283.48215"
       y="69.547623"
       x="-58.208332" />
    <filter
       id="filter182"
       inkscape:label="Drop Shadow"
       style="color-interpolation-filters:sRGB">
      <feFlood
         id="feFlood172"
         result="flood"
         flood-color="rgb(0,0,0)"
         flood-opacity="0.498039" />
      <feComposite
         id="feComposite174"
         result="composite1"
         operator="in"
         in2="SourceGraphic"
         in="flood" />
      <feGaussianBlur
         id="feGaussianBlur176"
         result="blur"
         stdDeviation="0.2"
         in="composite1" />
      <feOffset
         id="feOffset178"
         result="offset"
         dy="0.1"
         dx="0.1" />
      <feComposite
         id="feComposite180"
         result="composite2"
         operator="over"
         in2="offset"
         in="SourceGraphic" />
    </filter>
  </defs>
  <sodipodi:namedview
     inkscape:window-maximized="1"
     inkscape:window-y="-8"
     inkscape:window-x="1352"
     inkscape:window-height="1017"
     inkscape:window-width="1920"
     units="px"
     showgrid="false"
     inkscape:document-rotation="0"
     inkscape:current-layer="layer1"
     inkscape:document-units="mm"
     inkscape:cy="56.191849"
     inkscape:cx="145.9286"
     inkscape:zoom="5.6"
     inkscape:pageshadow="2"
     inkscape:pageopacity="0.0"
     borderopacity="1.0"
     bordercolor="#666666"
     pagecolor="#ffffff"
     id="base" />
  <metadata
     id="metadata5">
    <rdf:RDF>
      <cc:Work
         rdf:about="">
        <dc:format>image/svg+xml</dc:format>
        <dc:type
           rdf:resource="http://purl.org/dc/dcmitype/StillImage" />
        <dc:title></dc:title>
      </cc:Work>
    </rdf:RDF>
  </metadata>
  <g
     id="layer1"
     inkscape:groupmode="layer"
     inkscape:label="Capa 1">
    <g
       style="font-style:normal;font-weight:normal;font-size:10.5833px;line-height:1.25;font-family:sans-serif;white-space:pre;shape-inside:url(#rect12);fill:#000000;fill-opacity:1;stroke:none;filter:url(#filter182)"
       id="text10"
       transform="matrix(1.3522026,0,0,1.1884682,79.155234,-83.144067)"
       aria-label="Kaffa + ">
      <path
         id="path208"
         style="font-style:normal;font-variant:normal;font-weight:normal;font-stretch:normal;font-family:'coffee+tea demo';-inkscape-font-specification:'coffee+tea demo'"
         d="m -54.356663,79.251761 q -0.02117,-0.01058 -0.05292,-0.03175 -0.02117,-0.02117 -0.04233,-0.03175 v -0.01058 h -0.01058 q -0.01058,0 0,-0.01058 v -0.01058 h -0.01058 -0.01058 v -0.01058 -0.01058 q -0.04233,-0.07408 -0.09525,-0.529165 l -0.01058,-0.01058 v -0.03175 q 0,-0.03175 -0.01058,-0.04233 v -0.03175 q -0.01058,-0.01058 -0.01058,-0.03175 v -0.03175 -0.04233 -0.105833 -0.07408 -0.05292 -0.04233 q 0,-0.04233 -0.07408,-0.232832 l -0.03175,-0.127 q -0.03175,-0.08467 -0.07408,-0.243416 l -0.05292,-0.148166 q 0,-0.02117 -0.01058,-0.03175 -0.02117,-0.04233 -0.02117,-0.05292 v -0.02117 l -0.02117,-0.04233 q -0.01058,-0.01058 -0.01058,-0.03175 l -0.01058,-0.01058 q -0.01058,0 0,-0.01058 v -0.02117 l -0.0635,-0.137583 -0.01058,0.01058 v -0.05292 q -0.0635,-0.148166 -0.253999,-0.423332 l -0.03175,-0.04233 -0.0635,-0.08467 -0.01058,-0.01058 -0.02117,-0.02117 v -0.02117 q -0.03175,-0.03175 -0.09525,-0.137583 l -0.105833,-0.116417 q -0.01058,-0.01058 -0.02117,-0.02117 -0.01058,-0.02117 -0.03175,-0.05292 l -0.0635,-0.0635 -0.07408,-0.07408 -0.0635,-0.05292 q -0.01058,0 -0.01058,0.01058 h 0.01058 l -0.04233,0.03175 q -0.0635,0.04233 -0.201083,0.15875 l -0.158749,0.126999 q -0.04233,0.01058 -0.105833,0.07408 l -0.01058,0.01058 q 0,0.01058 -0.02117,0.01058 h -0.01058 q -0.09525,0.05292 -0.179916,0.08467 v 0.08467 q 0,0.0635 -0.01058,0.07408 -0.02117,0.02117 -0.02117,0.0635 l 0.02117,0.03175 v 0.126999 q 0,0.116416 -0.01058,0.15875 l -0.01058,0.08467 q -0.01058,-0.02117 -0.03175,0 0.05292,0.05292 0.03175,0.232833 -0.02117,0.211666 -0.02117,0.317499 l 0.01058,0.222249 v 0.04233 0.0635 q 0,0.02117 0.01058,0.03175 v 0.04233 0.07408 l -0.01058,0.0635 v 0.07408 q 0,0.127 0.01058,0.190499 0,0.03175 0.01058,0.05292 v 0.05292 q 0,0.02117 0.02117,0.0635 l 0.02117,0.05292 q 0.02117,0.116416 -0.03175,0.455082 -0.05292,0.232832 -0.05292,0.232832 -0.02117,0.0635 -0.02117,0.08467 -0.02117,0.02117 -0.105833,0.02117 l -0.02117,0.05292 -0.03175,0.05292 q -0.04233,-0.01058 -0.169332,-0.04233 -0.116417,-0.02117 -0.179916,-0.05292 -0.03175,-0.02117 -0.05292,-0.105833 -0.03175,-0.08467 -0.04233,-0.08467 v -0.03175 -0.02117 q -0.01058,0 -0.01058,-0.01058 v -0.02117 -0.03175 h -0.01058 q -0.02117,0 0,-0.02117 v -0.03175 q -0.0635,-0.338665 -0.07408,-1.312329 l -0.01058,-0.02117 v -0.08467 -0.07408 -0.07408 q -0.01058,-0.03175 -0.01058,-0.07408 0,-0.08467 0.02117,-0.148166 0,-0.127 0.01058,-0.201083 v -0.169333 q 0,-0.05292 0.01058,-0.09525 0.01058,-0.04233 0.01058,-0.09525 0,-0.15875 -0.01058,-0.275166 l -0.01058,-0.201083 -0.01058,-0.211666 q -0.01058,-0.116416 -0.01058,-0.275166 v -0.275165 -0.253999 -0.05292 q -0.01058,-0.02117 -0.01058,-0.05292 0,-0.08467 0.02117,-0.105833 l -0.01058,-0.127 q -0.01058,-0.01058 -0.01058,-0.03175 0,-0.02117 0.01058,-0.03175 l 0.01058,-0.02117 v -0.264583 h -0.01058 l 0.01058,-0.08467 q 0.01058,-0.0635 0.01058,-0.296333 0,-0.328082 -0.01058,-0.550331 V 73.378029 73.25103 l -0.01058,-0.02117 q 0,-0.03175 0.01058,-0.05292 v -0.03175 l 0.03175,-0.507999 q 0.01058,-0.01058 0.01058,-0.126999 0,-0.105833 0.01058,-0.137583 l 0.02117,-0.127 q 0,-0.105833 0.01058,-0.148166 0,-0.0635 0.01058,-0.07408 0.01058,0 0.01058,-0.02117 -0.01058,-0.01058 -0.01058,-0.03175 h 0.01058 0.01058 v -0.02117 -0.03175 l 0.01058,-0.01058 0.01058,-0.01058 q 0.01058,-0.01058 0.01058,-0.02117 0,-0.02117 0.01058,-0.03175 0,-0.01058 0.02117,-0.03175 0.01058,0 0.01058,-0.01058 l 0.01058,-0.01058 q 0.04233,-0.01058 0.09525,-0.02117 0.05292,-0.01058 0.08467,0 0,0.02117 0.04233,0.03175 0.03175,0.01058 0.05292,0.05292 h 0.01058 0.02117 l 0.01058,0.03175 0.01058,0.02117 q 0,0 0.07408,0.07408 0.105833,0.09525 0.127,0.179916 0.03175,0.370415 0.01058,0.825497 -0.01058,0.137583 -0.01058,0.296333 0,0.08467 0.01058,0.148166 v 0.148166 0.391582 l -0.01058,0.232833 q 0,0.04233 0,0.0635 0.01058,0.02117 0.01058,0.03175 v 0.04233 0.04233 q 0,0.03175 0.01058,0.04233 v 0.03175 q 0.02117,0.507998 0.02117,1.068913 0,0.148166 -0.03175,0.423332 l 0.04233,-0.03175 0.09525,-0.09525 q 0,0 0.243416,-0.243416 0,-0.01058 0.01058,-0.02117 0.01058,-0.01058 0.02117,-0.01058 l 0.02117,-0.04233 q 0.28575,-0.370416 0.370416,-0.507999 l 0.116416,-0.169332 q 0.04233,-0.05292 0.05292,-0.07408 0.02117,-0.03175 0.03175,-0.04233 0.02117,-0.02117 0.02117,-0.07408 v -0.03175 l 0.07408,-0.158749 q 0,0 0.04233,-0.04233 l 0.03175,-0.04233 v -0.02117 q 0.02117,-0.09525 0.09525,-0.211666 l 0.04233,-0.05292 0.02117,0.01058 v -0.02117 q 0,-0.05292 0.05292,-0.179916 0.08467,-0.15875 0.179917,-0.444499 l 0.02117,-0.05292 0.01058,-0.04233 q 0,-0.02117 0.02117,-0.08467 l 0.02117,-0.0635 0.02117,-0.05292 q 0.0635,-0.169333 0.07408,-0.264583 l 0.01058,-0.0635 v -0.05292 q 0.01058,-0.02117 0.01058,-0.07408 l -0.01058,-0.05292 q 0.02117,-0.116416 0.137583,-0.486831 0.07408,-0.243416 0.09525,-0.264583 0.02117,-0.03175 0.04233,-0.09525 0.02117,-0.02117 0.09525,-0.01058 0.01058,0 0.04233,-0.0635 0.03175,-0.05292 0.04233,-0.05292 0.07408,0.03175 0.105833,0.04233 0.148167,0.07408 0.1905,0.127 0.02117,0.04233 0.04233,0.158749 v 0.105833 0.02117 l -0.01058,0.04233 h 0.01058 l -0.01058,0.04233 -0.01058,0.02117 q 0,0.01058 0.01058,0 0.01058,0 0.01058,0.01058 l -0.01058,0.03175 q -0.01058,0.01058 -0.01058,0.03175 -0.04233,0.497415 -0.370415,1.418162 v 0.03175 q -0.01058,0.02117 -0.03175,0.0635 -0.02117,0.04233 -0.03175,0.08467 0,0 -0.02117,0.05292 -0.01058,0.07408 -0.0635,0.137583 l -0.03175,0.0635 -0.169333,0.296333 q -0.03175,0.03175 -0.04233,0.0635 l -0.05292,0.07408 -0.190499,0.349249 q -0.09525,0.158749 -0.169333,0.264582 -0.07408,0.105833 -0.148166,0.190499 -0.0635,0.07408 -0.105833,0.116417 0.15875,0.07408 0.275166,0.169332 0.126999,0.09525 0.370415,0.338666 l 0.15875,0.15875 q 0.08467,0.105833 0.169333,0.232832 0.09525,0.127 0.126999,0.179916 0,0 0.02117,0.02117 l 0.01058,0.02117 0.02117,0.02117 q 0.02117,0.02117 0.02117,0.02117 0.179916,0.317499 0.296333,0.645581 l 0.0635,0.338666 q 0,0.01058 0.02117,0.03175 l 0.03175,0.03175 q 0.02117,0.03175 0.04233,0.148167 0.02117,0.01058 0,0.03175 -0.02117,0.02117 -0.01058,0.04233 l 0.01058,0.02117 q 0.01058,0.01058 0.01058,0.03175 0,0.02117 0.01058,0.04233 0,0.0635 0.01058,0.09525 l -0.01058,0.04233 h -0.03175 q 0.05292,0.04233 0.04233,0.127 v 0.07408 q 0,0.07408 0.02117,0.201083 v 0.03175 0.02117 l 0.01058,0.02117 q 0,0 0,0.02117 0.01058,0.01058 0,0.03175 -0.01058,0.01058 -0.01058,0.03175 0,0.05292 0.02117,0.116416 0,0.03175 0.02117,0.05292 0,0 0.02117,0.02117 l 0.01058,0.02117 0.01058,0.04233 q 0,0.05292 -0.03175,0.137583 l -0.04233,0.07408 -0.03175,0.03175 -0.09525,0.01058 q -0.02117,0 -0.03175,0.01058 l -0.01058,0.01058 -0.02117,0.01058 z" />
      <path
         id="path210"
         style="font-style:normal;font-variant:normal;font-weight:normal;font-stretch:normal;font-family:'coffee+tea demo';-inkscape-font-specification:'coffee+tea demo'"
         d="m -50.206191,79.399927 q -0.02117,0.02117 -0.07408,-0.02117 l -0.05292,-0.02117 q 0,0 -0.02117,-0.02117 v -0.01058 l -0.01058,0.01058 -0.01058,-0.02117 v -0.01058 0.01058 h -0.01058 l -0.01058,-0.02117 v 0 q -0.127,-0.148166 -0.201083,-0.423332 -0.158749,0.211666 -0.296332,0.285749 -0.07408,0.0635 -0.1905,0.09525 -0.264582,0.07408 -0.444498,0.08467 h -0.0635 q -0.07408,0 -0.179916,-0.02117 -0.328083,-0.07408 -0.518582,-0.15875 -0.179916,-0.08467 -0.338666,-0.296332 -0.158749,-0.22225 -0.296332,-0.656165 -0.127,-0.402165 -0.179916,-1.068913 v -0.105833 q -0.01058,-0.04233 -0.01058,-0.116416 0,-0.07408 0.01058,-0.127 l 0.01058,-0.07408 0.02117,-0.317499 q 0,-0.03175 0.01058,-0.05292 l 0.01058,-0.04233 q 0.0635,-0.317499 0.116417,-0.486832 h -0.01058 -0.01058 l 0.0635,-0.137583 q 0.370415,-0.825497 0.719664,-1.100663 0.07408,-0.0635 0.317499,-0.158749 l 0.03175,-0.02117 q -0.01058,0 0.09525,-0.02117 0.105833,-0.02117 0.296332,-0.02117 0.433916,0 0.698498,0.264583 0.0635,0.05292 0.232833,0.275165 l 0.105833,0.148167 h 0.0635 q 0.07408,0 0.08467,0.01058 0.02117,0 0.04233,0.02117 0.03175,0.01058 0.05292,0.02117 h 0.01058 l 0.03175,0.01058 q 0,0.01058 0.01058,0.01058 l 0.0635,0.03175 0.08467,0.04233 0.02117,0.04233 0.01058,0.105833 q 0,0.137583 -0.03175,0.264582 l -0.02117,0.169333 q -0.02117,0.02117 0,0.07408 v 0.08467 q -0.01058,0.07408 -0.02117,0.211666 -0.01058,0.126999 0,0.222249 v 0.02117 q -0.01058,0.01058 -0.01058,0.03175 0,0.02117 0.01058,0.03175 v 0.02117 q 0.01058,0.0635 0.01058,0.338666 -0.01058,0.169332 -0.01058,0.349248 v 0.0635 q 0,0.116417 -0.01058,0.179916 -0.01058,0.04233 -0.01058,0.09525 l 0.02117,0.05292 0.02117,0.04233 q 0.02117,0.0635 0.02117,0.148166 l -0.02117,0.04233 q -0.01058,0.01058 -0.01058,0.02117 0,0.01058 0,0.01058 l 0.02117,0.02117 v 0.07408 q 0,0.07408 0.01058,0.105833 l -0.01058,0.05292 h -0.03175 q 0.04233,0.03175 0.04233,0.137583 v 0.08467 q 0,0.116416 0.03175,0.211665 v 0.03175 q 0,0.02117 0.01058,0.03175 l 0.01058,0.02117 q 0,0 0,0.01058 0.01058,0.01058 0.01058,0.03175 l -0.01058,0.04233 q 0.02117,0.08467 0.04233,0.127 l 0.02117,0.02117 q 0,0.03175 0.03175,0.04233 l 0.02117,0.01058 q 0.03175,0.05292 0.02117,0.190499 0,0.07408 -0.01058,0.08467 -0.01058,0.01058 -0.01058,0.03175 l -0.08467,0.05292 -0.02117,0.03175 -0.01058,0.03175 q -0.03175,0 -0.08467,0.03175 -0.116416,0.0635 -0.222249,0.07408 z m -0.507998,-3.312573 q 0.01058,-0.0635 0.01058,-0.232832 l 0.01058,-0.08467 q 0.01058,-0.03175 0.01058,-0.07408 l -0.01058,-0.01058 q 0,-0.02117 0.01058,-0.03175 v -0.02117 l 0.03175,-0.137583 q -0.1905,-0.137582 -0.328083,-0.275165 -0.253999,-0.370416 -0.349249,-0.476249 -0.09525,-0.116416 -0.201082,-0.116416 -0.09525,0 -0.201083,0.07408 -0.05292,0.04233 -0.15875,0.211666 -0.211666,0.391582 -0.328082,0.825497 l -0.01058,0.05292 q -0.02117,0.04233 -0.02117,0.0635 l -0.01058,0.116416 q -0.05292,0.423332 -0.05292,0.920747 0,0.518582 0.07408,0.857247 l 0.07408,0.264583 0.0635,0.243416 0.09525,0.370415 v 0.04233 q 0.02117,0.04233 0.179916,0.15875 0,0 0.05292,0.05292 0.02117,0.04233 0.05292,0.0635 l 0.02117,0.01058 q 0.116416,0.07408 0.222249,0.09525 h 0.05292 v 0.01058 l 0.137583,-0.105833 q 0.137582,-0.211666 0.201082,-0.433915 0.01058,-0.02117 0.02117,-0.05292 0.02117,-0.04233 0.02117,-0.0635 0.01058,-0.01058 0.01058,-0.04233 0,-0.04233 0.01058,-0.0635 0.01058,-0.01058 0.03175,-0.08467 0.02117,-0.07408 0.03175,-0.08467 0.0635,-0.275166 0.08467,-0.412749 0,-0.04233 0.01058,-0.0635 v -0.0635 -0.05292 q 0.02117,-0.05292 0,-0.116416 l -0.01058,-0.08467 q 0.02117,-0.306916 0.08467,-0.666748 l 0.03175,-0.201083 0.02117,-0.211666 z" />
      <path
         id="path212"
         style="font-style:normal;font-variant:normal;font-weight:normal;font-stretch:normal;font-family:'coffee+tea demo';-inkscape-font-specification:'coffee+tea demo'"
         d="m -48.208924,79.315261 q -0.03175,-0.03175 -0.05292,-0.179917 l -0.02117,-0.126999 q -0.01058,0 0,-0.03175 v -0.04233 h -0.01058 q -0.01058,0 0,-0.04233 v -0.04233 h -0.01058 q -0.01058,0 0,-0.04233 v -0.03175 q -0.04233,-0.296332 -0.09525,-1.344079 0,-0.126999 -0.04233,-0.656164 l -0.01058,-0.04233 v -0.116416 l -0.03175,-0.222249 q -0.01058,-0.04233 -0.01058,-0.09525 v -0.116416 -0.127 -0.275166 q -0.01058,-0.105833 -0.01058,-0.264582 V 75.37829 75.251291 q -0.01058,-0.05292 -0.01058,-0.105833 0,-0.05292 -0.01058,-0.116417 h -0.15875 l -0.04233,-0.01058 h -0.02117 l -0.01058,0.01058 q -0.01058,0 -0.01058,-0.01058 h -0.01058 l -0.127,-0.03175 q -0.05292,0 -0.07408,-0.02117 -0.02117,0 -0.03175,-0.01058 -0.02117,0 -0.03175,-0.01058 h -0.03175 q 0,-0.01058 -0.01058,-0.01058 v 0 0 q -0.01058,0 -0.01058,-0.01058 l -0.01058,-0.01058 v 0 l -0.02117,-0.02117 v -0.01058 -0.05292 q 0,-0.03175 0.01058,-0.03175 l 0.01058,-0.01058 0.02117,-0.03175 v -0.01058 0 l 0.02117,-0.01058 0.07408,-0.07408 0.137583,0.01058 q 0.04233,0 0.07408,0.01058 l 0.0635,0.02117 h 0.04233 0.03175 0.0635 q 0.01058,0.01058 0.03175,0.01058 -0.01058,-0.05292 -0.01058,-0.116416 l -0.02117,-0.613831 q 0,-0.179917 0.05292,-0.634998 v -0.0635 q 0,-0.08467 0.03175,-0.127 l 0.01058,-0.04233 0.02117,-0.116416 q 0,-0.05292 0.01058,-0.0635 0.01058,-0.02117 0.01058,-0.03175 l 0.01058,-0.01058 0.08467,-0.264583 -0.01058,-0.01058 0.04233,-0.0635 q 0.306916,-0.465665 0.560915,-0.645581 0.126999,-0.08467 0.402165,-0.211666 l 0.04233,-0.02117 0.116417,-0.03175 q 0.296332,-0.0635 0.550331,-0.0635 0.328082,0 0.465665,0.09525 0.137583,0.08467 0.211666,0.306916 0.05292,0.179916 0.03175,0.243416 v 0.04233 l -0.01058,0.05292 -0.01058,-0.01058 h -0.01058 l -0.01058,0.09525 -0.02117,0.02117 -0.02117,0.01058 -0.03175,0.05292 -0.01058,0.04233 -0.02117,0.01058 -0.02117,0.02117 q 0,0 -0.02117,0.02117 l -0.01058,0.02117 h -0.04233 q -0.116416,0 -0.116416,-0.03175 l -0.02117,-0.05292 q -0.02117,-0.0635 -0.02117,-0.09525 0,-0.01058 -0.01058,-0.01058 -0.01058,0.01058 -0.01058,0 v -0.03175 l -0.01058,-0.04233 q -0.03175,-0.04233 -0.15875,-0.137583 -0.04233,-0.01058 -0.04233,-0.04233 l 0.01058,-0.0635 q 0,-0.137583 -0.05292,-0.169333 -0.07408,-0.05292 -0.211666,-0.05292 -0.190499,0 -0.402165,0.127 -0.201083,0.126999 -0.306916,0.285749 -0.116416,0.179916 -0.158749,0.433915 v 0.02117 q -0.01058,0.01058 -0.01058,0.03175 -0.01058,0.01058 -0.01058,0.03175 v 0.03175 q -0.08467,0.740831 -0.08467,0.984247 0,0.211666 -0.01058,0.349249 l -0.02117,0.275166 q 0,0 0.03175,0.126999 l 0.01058,0.04233 q 0.01058,0.03175 0.01058,0.116416 0.08467,0.01058 0.15875,0 h 0.01058 0.02117 0.01058 0.01058 0.02117 0.02117 q 0.04233,0.01058 0.08467,0 h 0.02117 l 0.02117,-0.01058 h 0.02117 l 0.01058,-0.01058 h 0.03175 l 0.126999,0.02117 q 0.08467,0.02117 0.08467,0.02117 0.01058,0.01058 0.03175,0.01058 0.01058,0 0.01058,0.04233 l 0.02117,0.02117 0.02117,0.01058 q -0.01058,0.01058 -0.01058,0.04233 -0.02117,0.07408 -0.04233,0.105833 -0.01058,0.01058 -0.03175,0.02117 -0.02117,0.01058 -0.04233,0.01058 h -0.01058 v 0.01058 l -0.02117,-0.01058 v 0.01058 h -0.01058 -0.01058 q -0.05292,0.01058 -0.423332,0.01058 l -0.01058,0.01058 h -0.02117 -0.02117 -0.02117 -0.02117 -0.02117 -0.02117 -0.01058 v 0.0635 l 0.02117,0.03175 q 0,0.105833 0.01058,0.190499 0.01058,0.08467 0.01058,0.222249 l -0.01058,0.105833 q -0.02117,-0.03175 -0.03175,-0.02117 -0.01058,0.01058 0,0.02117 0.05292,0.08467 0.05292,0.349249 0,0.423332 0.04233,0.804331 0,0.05292 0.01058,0.08467 v 0.08467 q 0,0.03175 0.01058,0.05292 0.01058,0.02117 0.01058,0.0635 v 0.105833 l -0.01058,0.105833 q 0,0.201083 0.03175,0.412749 l 0.02117,0.169332 q 0,0.03175 0.02117,0.09525 l 0.02117,0.07408 q 0.02117,0.264583 -0.04233,0.719665 -0.03175,0.306915 -0.05292,0.380998 l -0.04233,0.116417 q 0,0.04233 -0.09525,0.03175 l -0.03175,0.08467 q -0.01058,0.01058 -0.03175,0.07408 -0.05292,-0.01058 -0.169332,-0.0635 -0.116417,-0.04233 -0.169333,-0.09525 z" />
      <path
         id="path214"
         style="font-style:normal;font-variant:normal;font-weight:normal;font-stretch:normal;font-family:'coffee+tea demo';-inkscape-font-specification:'coffee+tea demo'"
         d="m -45.129018,79.315261 q -0.03175,-0.03175 -0.05292,-0.179917 l -0.02117,-0.126999 q -0.01058,0 0,-0.03175 v -0.04233 h -0.01058 q -0.01058,0 0,-0.04233 v -0.04233 h -0.01058 q -0.01058,0 0,-0.04233 v -0.03175 q -0.04233,-0.296332 -0.09525,-1.344079 0,-0.126999 -0.04233,-0.656164 l -0.01058,-0.04233 v -0.116416 l -0.03175,-0.222249 q -0.01058,-0.04233 -0.01058,-0.09525 v -0.116416 -0.127 -0.275166 q -0.01058,-0.105833 -0.01058,-0.264582 V 75.37829 75.251291 q -0.01058,-0.05292 -0.01058,-0.105833 0,-0.05292 -0.01058,-0.116417 h -0.158749 l -0.04233,-0.01058 h -0.02117 l -0.01058,0.01058 q -0.01058,0 -0.01058,-0.01058 h -0.01058 l -0.126999,-0.03175 q -0.05292,0 -0.07408,-0.02117 -0.02117,0 -0.03175,-0.01058 -0.02117,0 -0.03175,-0.01058 h -0.03175 q 0,-0.01058 -0.01058,-0.01058 v 0 0 q -0.01058,0 -0.01058,-0.01058 l -0.01058,-0.01058 v 0 l -0.02117,-0.02117 v -0.01058 -0.05292 q 0,-0.03175 0.01058,-0.03175 l 0.01058,-0.01058 0.02117,-0.03175 v -0.01058 0 l 0.02117,-0.01058 0.07408,-0.07408 0.137583,0.01058 q 0.04233,0 0.07408,0.01058 l 0.0635,0.02117 h 0.04233 0.03175 0.0635 q 0.01058,0.01058 0.03175,0.01058 -0.01058,-0.05292 -0.01058,-0.116416 l -0.02117,-0.613831 q 0,-0.179917 0.05292,-0.634998 v -0.0635 q 0,-0.08467 0.03175,-0.127 l 0.01058,-0.04233 0.02117,-0.116416 q 0,-0.05292 0.01058,-0.0635 0.01058,-0.02117 0.01058,-0.03175 l 0.01058,-0.01058 0.08467,-0.264583 -0.01058,-0.01058 0.04233,-0.0635 q 0.306916,-0.465665 0.560915,-0.645581 0.127,-0.08467 0.402166,-0.211666 l 0.04233,-0.02117 0.116416,-0.03175 q 0.296332,-0.0635 0.550332,-0.0635 0.328082,0 0.465665,0.09525 0.137583,0.08467 0.211666,0.306916 0.05292,0.179916 0.03175,0.243416 v 0.04233 l -0.01058,0.05292 -0.01058,-0.01058 h -0.01058 l -0.01058,0.09525 -0.02117,0.02117 -0.02117,0.01058 -0.03175,0.05292 -0.01058,0.04233 -0.02117,0.01058 -0.02117,0.02117 q 0,0 -0.02117,0.02117 l -0.01058,0.02117 h -0.04233 q -0.116416,0 -0.116416,-0.03175 l -0.02117,-0.05292 q -0.02117,-0.0635 -0.02117,-0.09525 0,-0.01058 -0.01058,-0.01058 -0.01058,0.01058 -0.01058,0 v -0.03175 l -0.01058,-0.04233 q -0.03175,-0.04233 -0.158749,-0.137583 -0.04233,-0.01058 -0.04233,-0.04233 l 0.01058,-0.0635 q 0,-0.137583 -0.05292,-0.169333 -0.07408,-0.05292 -0.211666,-0.05292 -0.1905,0 -0.402166,0.127 -0.201083,0.126999 -0.306916,0.285749 -0.116416,0.179916 -0.158749,0.433915 v 0.02117 q -0.01058,0.01058 -0.01058,0.03175 -0.01058,0.01058 -0.01058,0.03175 v 0.03175 q -0.08467,0.740831 -0.08467,0.984247 0,0.211666 -0.01058,0.349249 l -0.02117,0.275166 q 0,0 0.03175,0.126999 l 0.01058,0.04233 q 0.01058,0.03175 0.01058,0.116416 0.08467,0.01058 0.158749,0 h 0.01058 0.02117 0.01058 0.01058 0.02117 0.02117 q 0.04233,0.01058 0.08467,0 h 0.02117 l 0.02117,-0.01058 h 0.02117 l 0.01058,-0.01058 h 0.03175 l 0.127,0.02117 q 0.08467,0.02117 0.08467,0.02117 0.01058,0.01058 0.03175,0.01058 0.01058,0 0.01058,0.04233 l 0.02117,0.02117 0.02117,0.01058 q -0.01058,0.01058 -0.01058,0.04233 -0.02117,0.07408 -0.04233,0.105833 -0.01058,0.01058 -0.03175,0.02117 -0.02117,0.01058 -0.04233,0.01058 h -0.01058 v 0.01058 l -0.02117,-0.01058 v 0.01058 h -0.01058 -0.01058 q -0.05292,0.01058 -0.423331,0.01058 l -0.01058,0.01058 h -0.02117 -0.02117 -0.02117 -0.02117 -0.02117 -0.02117 -0.01058 v 0.0635 l 0.02117,0.03175 q 0,0.105833 0.01058,0.190499 0.01058,0.08467 0.01058,0.222249 l -0.01058,0.105833 q -0.02117,-0.03175 -0.03175,-0.02117 -0.01058,0.01058 0,0.02117 0.05292,0.08467 0.05292,0.349249 0,0.423332 0.04233,0.804331 0,0.05292 0.01058,0.08467 v 0.08467 q 0,0.03175 0.01058,0.05292 0.01058,0.02117 0.01058,0.0635 v 0.105833 l -0.01058,0.105833 q 0,0.201083 0.03175,0.412749 l 0.02117,0.169332 q 0,0.03175 0.02117,0.09525 l 0.02117,0.07408 q 0.02117,0.264583 -0.04233,0.719665 -0.03175,0.306915 -0.05292,0.380998 l -0.04233,0.116417 q 0,0.04233 -0.09525,0.03175 l -0.03175,0.08467 q -0.01058,0.01058 -0.03175,0.07408 -0.05292,-0.01058 -0.169333,-0.0635 -0.116416,-0.04233 -0.169333,-0.09525 z" />
      <path
         id="path216"
         style="font-style:normal;font-variant:normal;font-weight:normal;font-stretch:normal;font-family:'coffee+tea demo';-inkscape-font-specification:'coffee+tea demo'"
         d="m -40.36703,79.399927 q -0.02117,0.02117 -0.07408,-0.02117 l -0.05292,-0.02117 q 0,0 -0.02117,-0.02117 v -0.01058 l -0.01058,0.01058 -0.01058,-0.02117 v -0.01058 0.01058 h -0.01058 l -0.01058,-0.02117 v 0 q -0.127,-0.148166 -0.201083,-0.423332 -0.15875,0.211666 -0.296332,0.285749 -0.07408,0.0635 -0.1905,0.09525 -0.264582,0.07408 -0.444498,0.08467 h -0.0635 q -0.07408,0 -0.179916,-0.02117 -0.328083,-0.07408 -0.518582,-0.15875 -0.179916,-0.08467 -0.338666,-0.296332 -0.158749,-0.22225 -0.296332,-0.656165 -0.127,-0.402165 -0.179916,-1.068913 v -0.105833 q -0.01058,-0.04233 -0.01058,-0.116416 0,-0.07408 0.01058,-0.127 l 0.01058,-0.07408 0.02117,-0.317499 q 0,-0.03175 0.01058,-0.05292 l 0.01058,-0.04233 q 0.0635,-0.317499 0.116417,-0.486832 h -0.01058 -0.01058 l 0.0635,-0.137583 q 0.370415,-0.825497 0.719664,-1.100663 0.07408,-0.0635 0.317499,-0.158749 l 0.03175,-0.02117 q -0.01058,0 0.09525,-0.02117 0.105833,-0.02117 0.296332,-0.02117 0.433916,0 0.698498,0.264583 0.0635,0.05292 0.232833,0.275165 l 0.105833,0.148167 h 0.0635 q 0.07408,0 0.08467,0.01058 0.02117,0 0.04233,0.02117 0.03175,0.01058 0.05292,0.02117 h 0.01058 l 0.03175,0.01058 q 0,0.01058 0.01058,0.01058 l 0.0635,0.03175 0.08467,0.04233 0.02117,0.04233 0.01058,0.105833 q 0,0.137583 -0.03175,0.264582 l -0.02117,0.169333 q -0.02117,0.02117 0,0.07408 v 0.08467 q -0.01058,0.07408 -0.02117,0.211666 -0.01058,0.126999 0,0.222249 v 0.02117 q -0.01058,0.01058 -0.01058,0.03175 0,0.02117 0.01058,0.03175 v 0.02117 q 0.01058,0.0635 0.01058,0.338666 -0.01058,0.169332 -0.01058,0.349248 v 0.0635 q 0,0.116417 -0.01058,0.179916 -0.01058,0.04233 -0.01058,0.09525 l 0.02117,0.05292 0.02117,0.04233 q 0.02117,0.0635 0.02117,0.148166 l -0.02117,0.04233 q -0.01058,0.01058 -0.01058,0.02117 0,0.01058 0,0.01058 l 0.02117,0.02117 v 0.07408 q 0,0.07408 0.01058,0.105833 l -0.01058,0.05292 h -0.03175 q 0.04233,0.03175 0.04233,0.137583 v 0.08467 q 0,0.116416 0.03175,0.211665 v 0.03175 q 0,0.02117 0.01058,0.03175 l 0.01058,0.02117 q 0,0 0,0.01058 0.01058,0.01058 0.01058,0.03175 l -0.01058,0.04233 q 0.02117,0.08467 0.04233,0.127 l 0.02117,0.02117 q 0,0.03175 0.03175,0.04233 l 0.02117,0.01058 q 0.03175,0.05292 0.02117,0.190499 0,0.07408 -0.01058,0.08467 -0.01058,0.01058 -0.01058,0.03175 l -0.08467,0.05292 -0.02117,0.03175 -0.01058,0.03175 q -0.03175,0 -0.08467,0.03175 -0.116416,0.0635 -0.222249,0.07408 z m -0.507998,-3.312573 q 0.01058,-0.0635 0.01058,-0.232832 l 0.01058,-0.08467 q 0.01058,-0.03175 0.01058,-0.07408 l -0.01058,-0.01058 q 0,-0.02117 0.01058,-0.03175 v -0.02117 l 0.03175,-0.137583 q -0.190499,-0.137582 -0.328082,-0.275165 -0.253999,-0.370416 -0.349249,-0.476249 -0.09525,-0.116416 -0.201082,-0.116416 -0.09525,0 -0.201083,0.07408 -0.05292,0.04233 -0.15875,0.211666 -0.211666,0.391582 -0.328082,0.825497 l -0.01058,0.05292 q -0.02117,0.04233 -0.02117,0.0635 l -0.01058,0.116416 q -0.05292,0.423332 -0.05292,0.920747 0,0.518582 0.07408,0.857247 l 0.07408,0.264583 0.0635,0.243416 0.09525,0.370415 v 0.04233 q 0.02117,0.04233 0.179916,0.15875 0,0 0.05292,0.05292 0.02117,0.04233 0.05292,0.0635 l 0.02117,0.01058 q 0.116416,0.07408 0.222249,0.09525 h 0.05292 v 0.01058 l 0.137582,-0.105833 q 0.137583,-0.211666 0.201083,-0.433915 0.01058,-0.02117 0.02117,-0.05292 0.02117,-0.04233 0.02117,-0.0635 0.01058,-0.01058 0.01058,-0.04233 0,-0.04233 0.01058,-0.0635 0.01058,-0.01058 0.03175,-0.08467 0.02117,-0.07408 0.03175,-0.08467 0.0635,-0.275166 0.08467,-0.412749 0,-0.04233 0.01058,-0.0635 v -0.0635 -0.05292 q 0.02117,-0.05292 0,-0.116416 l -0.01058,-0.08467 q 0.02117,-0.306916 0.08467,-0.666748 l 0.03175,-0.201083 0.02117,-0.211666 z" />
      <path
         id="path218"
         style="font-style:normal;font-variant:normal;font-weight:normal;font-stretch:normal;font-family:'coffee+tea demo';-inkscape-font-specification:'coffee+tea demo'"
         d="m -34.404332,70.573455 q 0.02117,-0.04233 0.09525,-0.02117 v 0 q 0.07408,0 0.148166,0.211666 0.08467,0.211666 0.07408,0.391583 0.01058,0.211666 -0.253999,0.846664 -0.148167,0.370415 -0.179916,0.592664 -0.03175,0.232833 -0.05292,0.243416 -0.03175,0.01058 -0.03175,0.05292 0,0.04233 -0.0635,0.0635 -0.137583,0.03175 -0.275165,-0.08467 -0.127,-0.127 -0.169333,-0.296332 -0.02117,-0.0635 -0.02117,-0.116417 0,-0.08467 0.03175,-0.179916 0.07408,-0.222249 0.264583,-0.476248 0.264582,-0.338666 0.349248,-0.507999 0.09525,-0.179916 0.09525,-0.370415 l -0.01058,-0.137583 q -0.02117,-0.190499 0,-0.211666 z m 0.740831,-0.05292 q -0.02117,-0.08467 0.05292,-0.08467 0.07408,0 0.127,0.03175 0.02117,0.02117 0.08467,0.03175 l 0.09525,0.05292 q 0.190499,0.09525 0.317499,0.317499 0.137583,0.211666 0.137583,0.433916 0,0.338665 -0.423332,1.248829 -0.306916,0.603248 -0.391582,0.836081 -0.09525,0.243416 -0.105833,0.359832 l -0.01058,0.190499 h 0.423331 l 0.433916,0.01058 -0.02117,-0.116417 q -0.02117,-0.137583 0.04233,-0.391582 0.07408,-0.253999 0.232833,-0.582081 0.158749,-0.349249 0.190499,-0.486832 0.03175,-0.148166 0.03175,-0.550332 0,-0.444498 0.116417,-0.444498 0.07408,0 0.158749,0.190499 0.137583,0.306916 0.137583,0.656165 0,0.148166 -0.04233,0.317499 -0.04233,0.169333 -0.296333,0.698498 -0.190499,0.402165 -0.232832,0.582081 l -0.02117,0.137583 0.243416,0.02117 q 1.396996,0.116416 1.947327,0.211666 0.359832,0.04233 0.380999,0.116416 l -0.02117,0.04233 q -0.03175,0.04233 0.03175,0.08467 0.148166,0.08467 0.1905,0.359833 0.01058,0.0635 0.02117,0.105833 0.01058,0.03175 0.02117,0.02117 0.243416,-0.137583 0.529165,-0.137583 0.253999,0 0.370415,0.05292 0.116417,0.05292 0.328083,0.243416 0.211666,0.190499 0.264582,0.285749 0.05292,0.09525 0.0635,0.338665 0.02117,0.275166 -0.03175,0.476249 -0.05292,0.201083 -0.264582,0.592665 -0.08467,0.158749 -0.28575,0.338665 -0.201082,0.169333 -0.402165,0.275166 -0.264582,0.116416 -0.582081,0.116416 -0.232833,0 -0.328083,-0.0635 l -0.116416,-0.0635 -0.09525,0.190499 q -0.148166,0.296333 -0.539748,0.624415 -0.380999,0.317499 -0.804331,0.507998 -0.857247,0.380999 -1.756828,0.380999 -0.719664,0 -1.185329,-0.15875 -0.455082,-0.158749 -0.984247,-0.582081 -0.486832,-0.380999 -0.740831,-0.814914 -0.243416,-0.433915 -0.338665,-1.09008 -0.04233,-0.211666 -0.04233,-0.518582 0,-0.349249 0.05292,-0.709081 0.0635,-0.359832 0.158749,-0.613831 0.07408,-0.201083 0.211666,-0.285749 0.148166,-0.09525 0.613832,-0.179916 0.476248,-0.09525 1.005413,-0.137583 l 0.264583,-0.03175 -0.02117,-0.169333 q -0.02117,-0.370415 0.317499,-0.89958 0.571498,-0.963081 0.666748,-1.24883 0.04233,-0.158749 0.04233,-0.338665 0,-0.211666 -0.05292,-0.370416 -0.105833,-0.275166 -0.116417,-0.285749 -0.04233,-0.0635 -0.05292,-0.126999 z m 0.878414,3.746488 q -0.05292,-0.0635 -0.116417,-0.08467 -0.148166,-0.03175 -0.656164,-0.03175 h -0.05292 q -0.05292,0 -0.05292,0.01058 0,0.02117 0.148166,0.105833 0.105833,0.0635 0.105833,0.105833 0,0.03175 -0.105833,0.03175 -0.09525,0 -0.158749,-0.01058 -0.211666,-0.02117 -0.412749,-0.126999 -0.09525,-0.05292 -0.169333,-0.07408 -0.07408,-0.03175 -0.148166,-0.03175 l -0.243416,0.02117 q -0.529165,0.03175 -1.259413,0.179916 l -0.253999,0.05292 0.137583,0.04233 q 0.412749,0.127 1.344079,0.15875 0.486832,0.02117 0.507998,0.04233 0.04233,0.02117 -0.01058,0.08467 -0.0635,0.08467 -0.571498,0.08467 -0.253999,0 -0.560915,-0.03175 l -0.306916,-0.02117 q -0.09525,0 -0.116416,0.02117 -0.07408,0.04233 -0.306916,0.116416 -0.169332,0.05292 -0.232832,0.08467 -0.04233,0.03175 -0.04233,0.105833 0,0.09525 0.01058,0.09525 l 0.285749,-0.08467 q 0.275166,-0.08467 0.285749,-0.07408 0.07408,0.07408 -0.306916,0.179916 -0.169332,0.05292 -0.232832,0.08467 -0.04233,0.03175 -0.04233,0.116416 0,0.07408 0.01058,0.08467 0.01058,0.01058 0.04233,0 0.539748,-0.211666 0.656165,-0.211666 0.05292,0 0.05292,0.02117 0,0.03175 -0.179916,0.105833 -0.222249,0.09525 -0.455082,0.169333 -0.09525,0.03175 -0.116416,0.0635 -0.01058,0.02117 -0.01058,0.137583 0,0.158749 0.01058,0.158749 0.03175,0 0.338665,-0.105833 0.306916,-0.116416 0.380999,-0.158749 0.232833,-0.105833 0.232833,-0.02117 0,0.02117 -0.222249,0.127 -0.232833,0.105833 -0.465666,0.179916 l -0.222249,0.07408 -0.01058,0.137583 q -0.01058,0.137583 0.02117,0.137583 0.02117,0 0.15875,-0.05292 0.137583,-0.0635 0.285749,-0.116416 0.402165,-0.15875 0.444499,-0.15875 0.09525,0 -0.01058,0.07408 l -0.07408,0.05292 q -0.275166,0.127 -0.793747,0.317499 0,0.05292 0.02117,0.15875 0.03175,0.105833 0.05292,0.158749 l 0.370415,-0.158749 q 0.211666,-0.09525 0.328083,-0.137583 0.126999,-0.04233 0.137582,-0.02117 l 0.01058,0.02117 q 0,0.04233 -0.412749,0.222249 l -0.412749,0.179916 0.05292,0.148166 0.05292,0.15875 0.306916,-0.137583 q 0.476249,-0.222249 0.476249,-0.148166 0,0.02117 -0.28575,0.169332 -0.275165,0.137583 -0.402165,0.169333 l -0.07408,0.03175 0.08467,0.15875 0.08467,0.158749 0.211666,-0.126999 q 0.328082,-0.201083 0.433915,-0.201083 0.04233,0 0.04233,0.02117 0,0.03175 -0.211666,0.15875 -0.0635,0.04233 -0.09525,0.05292 l -0.317499,0.169333 0.05292,0.08467 q 0.0635,0.07408 0.127,0.03175 0.497415,-0.317499 0.571498,-0.317499 0.05292,-0.1905 0.03175,-0.08467 -0.02117,0.09525 -0.08467,0.179916 -0.0635,0.08467 -0.179916,0.148166 l -0.03175,0.02117 -0.296332,0.179916 0.105833,0.105833 0.105833,0.105833 0.232833,-0.148166 q 0.04233,-0.127 0.08467,-0.190499 0.04233,-0.07408 0.0635,-0.08467 0.03175,-0.01058 0.03175,0.03175 v 0.0635 q 0,0.190499 -0.105833,0.264582 l -0.22225,0.148167 0.07408,0.07408 0.07408,0.07408 0.137582,-0.09525 0.148167,-0.09525 q 0.04233,0 0.05292,0.04233 v 0.01058 q 0,0.05292 -0.09525,0.116416 -0.105833,0.0635 -0.105833,0.09525 0,0.02117 0.0635,0.05292 0.01058,0.01058 0.04233,0.01058 0.0635,0 0.137583,-0.0635 0.07408,-0.05292 0.116417,-0.05292 0.04233,0 0.04233,0.04233 0,0.04233 -0.05292,0.08467 l -0.07408,0.08467 0.1905,0.07408 q 0.656164,0.254 1.195912,0.254 0.349249,0 0.730248,-0.09525 0.539748,-0.137583 0.973664,-0.402166 0.444498,-0.264582 0.804331,-0.730247 0.349248,-0.455082 0.444498,-0.783164 0.105833,-0.338666 0.169333,-1.047747 0.01058,-0.201083 0.03175,-0.338666 0.02117,-0.137582 0.02117,-0.222249 0,-0.105833 -0.05292,-0.105833 -0.04233,0 -0.1905,0.08467 -0.148166,0.07408 -0.232832,0.126999 -0.433915,0.232833 -0.455082,0.211666 -0.04233,-0.04233 0.04233,-0.09525 0.08467,-0.0635 0.179916,-0.116416 0.105833,-0.05292 0.148167,-0.07408 0.285749,-0.137583 0.370415,-0.190499 0.08467,-0.0635 0.105833,-0.127 0.02117,-0.0635 0.04233,-0.285749 l 0.01058,-0.253999 q -0.01058,-0.04233 -0.0635,-0.04233 -0.0635,0 -0.0635,0.04233 0,0.09525 -0.380999,0.211666 -0.370415,0.116416 -0.666748,0.116416 h -0.09525 q -0.201083,0 -0.201083,-0.05292 0,-0.03175 0.04233,-0.07408 0.07408,-0.05292 0.190499,-0.05292 0.22225,0 0.698498,-0.148166 l 0.201083,-0.0635 -0.709081,-0.07408 q -0.687915,-0.07408 -0.973664,-0.09525 l -0.264582,-0.02117 v 0.09525 q 0,0.0635 -0.02117,0.08467 -0.01058,0.01058 -0.08467,0 -0.105833,-0.02117 -0.179916,-0.105833 z m -3.259657,0.423332 -0.253999,-0.07408 q -0.02117,-0.01058 -0.04233,0.01058 -0.01058,0.01058 -0.01058,0.116416 0,0.148166 0.02117,0.148166 0.03175,0 0.253999,-0.07408 l 0.232833,-0.07408 z m 6.932062,0.391582 q -0.15875,-0.09525 -0.285749,-0.09525 -0.169333,0 -0.275166,0.148166 -0.09525,0.137583 -0.116417,0.328082 l -0.02117,0.232833 0.105833,-0.0635 q 0.158749,-0.09525 0.296332,-0.09525 0.15875,0 0.253999,0.126999 0.09525,0.116416 0.09525,0.328082 0,0.624415 -0.550331,0.740831 -0.127,0.02117 -0.169333,0.02117 -0.105833,0 -0.15875,-0.04233 -0.04233,-0.01058 -0.05292,0 -0.03175,0.05292 -0.07408,0.179916 -0.03175,0.116416 0.01058,0.148166 0.05292,0.07408 0.05292,0.02117 0,-0.02117 0.02117,-0.04233 0.02117,-0.02117 0.0635,-0.02117 0.03175,0 0.08467,0.03175 0.0635,0.04233 0.0635,0.105833 0,0.04233 0.03175,0.04233 0.03175,0 0.03175,0.05292 0,0.04233 0.105833,0.04233 0.08467,0 0.116416,-0.02117 0.02117,-0.02117 0.02117,-0.03175 0,-0.04233 -0.07408,-0.116416 -0.201083,-0.211666 -0.105833,-0.296332 0.03175,-0.02117 0.07408,-0.02117 0.0635,0 0.07408,0.05292 0.01058,0.05292 0.09525,0.15875 0.09525,0.09525 0.126999,0.09525 0.03175,0.01058 0.07408,-0.03175 0.05292,-0.05292 0.02117,-0.07408 -0.04233,-0.04233 -0.105833,-0.127 -0.05292,-0.09525 -0.02117,-0.127 0.03175,-0.05292 0.07408,-0.05292 0.04233,0 0.09525,0.08467 0.05292,0.08467 0.07408,0.08467 0.03175,0 0.0635,-0.05292 0.03175,-0.05292 0.04233,-0.07408 l 0.0635,-0.116416 -0.0635,-0.05292 q -0.0635,-0.05292 -0.0635,-0.105833 0,-0.03175 0.03175,-0.04233 0.03175,-0.02117 0.08467,-0.01058 h 0.02117 q 0.07408,0 0.105833,-0.0635 0.05292,-0.158749 0.05292,-0.497415 0,-0.127 -0.02117,-0.232833 -0.04233,-0.148166 -0.148166,-0.296332 -0.105833,-0.158749 -0.222249,-0.222249 z m -0.243416,0.93133 q 0,-0.338666 -0.116417,-0.338666 -0.07408,0 -0.222249,0.148167 -0.08467,0.08467 -0.116416,0.148166 -0.02117,0.05292 -0.08467,0.296332 l -0.0635,0.317499 0.126999,0.01058 q 0.127,0.03175 0.243416,-0.02117 0.116416,-0.0635 0.1905,-0.190499 0.04233,-0.09525 0.04233,-0.370416 z m -1.471079,-1.142996 q 0.08467,-0.04233 0.243416,-0.105833 l 0.137583,-0.05292 q 0.02117,-0.01058 0.05292,-0.01058 0.127,0 -0.08467,0.116416 -0.211666,0.116417 -0.476248,0.22225 -0.264583,0.09525 -0.264583,0.05292 0.01058,-0.03175 0.391582,-0.222249 z m 0.15875,0.793747 q 0.243415,-0.137583 0.306915,-0.158749 0.01058,-0.01058 0.04233,-0.01058 0.03175,0 0.03175,0.03175 0,0.04233 -0.07408,0.08467 -0.190499,0.116416 -0.412748,0.232832 -0.22225,0.105833 -0.22225,0.03175 0,-0.02117 0.137583,-0.09525 0.137583,-0.08467 0.1905,-0.116416 z m 0.01058,0.349249 q 0.359832,-0.158749 0.359832,-0.09525 0,0.04233 -0.169333,0.127 -0.158749,0.07408 -0.328082,0.127 -0.169333,0.05292 -0.169333,0.02117 l 0.01058,-0.02117 q 0.01058,-0.04233 0.296332,-0.15875 z m -0.01058,0.359832 q 0.243415,-0.126999 0.317499,-0.126999 0.05292,0 -0.02117,0.07408 -0.07408,0.0635 -0.222249,0.137583 -0.253999,0.126999 -0.317499,0.126999 -0.07408,0 -0.01058,-0.05292 0.05292,-0.05292 0.254,-0.15875 z m -0.08467,0.317499 q 0.285749,-0.126999 0.285749,-0.04233 0,0.03175 -0.232832,0.148166 -0.22225,0.105833 -0.275166,0.105833 -0.01058,0 -0.01058,-0.02117 0,-0.02117 0.01058,-0.03175 0.04233,-0.0635 0.222249,-0.158749 z m -0.05292,0.306916 q 0.09525,-0.03175 0.148166,-0.03175 0.03175,0 0.03175,0.02117 0,0.05292 -0.179916,0.126999 -0.201083,0.09525 -0.275166,0.09525 -0.0635,0 -0.0635,-0.02117 0,-0.04233 0.116416,-0.09525 z m -0.179916,0.359832 q 0.243416,-0.09525 0.222249,-0.01058 l -0.04233,0.05292 q -0.04233,0.04233 -0.1905,0.04233 -0.105833,0 -0.105833,-0.02117 0,-0.02117 0.116417,-0.0635 z m -0.232833,0.349249 q 0.08467,-0.03175 0.105833,-0.03175 0.02117,0.02117 0.02117,0.04233 0,0.09525 -0.15875,0.09525 l -0.09525,0.05292 q -0.01058,0 -0.01058,-0.01058 0,-0.01058 0.05292,-0.0635 0.05292,-0.05292 0.08467,-0.08467 z m -0.190499,1.15358 q 0.0635,-0.127 0.158749,-0.127 0.1905,0 0.1905,0.127 0,0.07408 -0.179917,0.222249 -0.698497,0.497415 -2.233076,0.497415 -1.714494,0 -2.074327,-0.539748 -0.05292,-0.0635 -0.05292,-0.148166 0,-0.09525 0.07408,-0.09525 0.137583,-0.01058 0.201083,0.02117 0.07408,0.02117 0.158749,0.116417 0.1905,0.232832 0.677331,0.349249 0.497416,0.105833 1.09008,0.105833 0.412749,0 0.804331,-0.05292 1.005414,-0.158749 1.18533,-0.476248 z m -3.227907,-1.28058 q -0.03175,-0.02117 -0.04233,-0.04233 -0.01058,-0.03175 -0.01058,-0.04233 -0.02117,-0.253999 -0.04233,-0.380999 -0.04233,-0.402165 -0.04233,-0.592665 0,-0.190499 0.05292,-0.582081 0.0635,-0.359832 0.306916,-0.444499 0.0635,-0.03175 0.09525,-0.03175 0.201083,0.02117 0.296333,0.28575 0.105833,0.222249 0.148166,0.518581 0.07408,0.698498 0.07408,1.05833 0,0.03175 -0.05292,0.08467 -0.07408,0.05292 -0.105833,0.05292 -0.0635,0 -0.09525,-0.04233 -0.04233,-0.07408 -0.0635,-0.370416 -0.02117,-0.306915 -0.02117,-0.349248 l -0.296332,0.09525 h -0.02117 l 0.05292,0.391582 0.01058,0.116417 0.02117,0.179916 q 0,0.02117 -0.02117,0.04233 -0.02117,0.02117 -0.04233,0.05292 -0.04233,0.04233 -0.105833,0.03175 -0.05292,0 -0.09525,-0.03175 z m 0.465665,-1.174746 -0.01058,-0.08467 q -0.0635,-0.349249 -0.116416,-0.476249 l -0.03175,-0.08467 q -0.0635,0.0635 -0.09525,0.232832 -0.05292,0.22225 -0.05292,0.539749 l 0.306915,-0.09525 z m 1.386413,0.96308 q -0.02117,-0.01058 -0.04233,-0.04233 -0.02117,-0.04233 -0.02117,-0.07408 -0.02117,-0.105833 -0.04233,-0.179916 -0.01058,-0.07408 -0.02117,-0.116416 -0.0635,-0.179916 -0.359832,-0.656165 -0.02117,-0.05292 -0.07408,-0.07408 0.02117,0.285749 0.03175,0.328082 l 0.02117,0.285749 0.04233,0.402166 v 0.02117 q 0,0.04233 -0.05292,0.08467 -0.05292,0.03175 -0.116416,0.03175 -0.02117,0 -0.08467,-0.02117 -0.0635,-0.02117 -0.04233,-0.08467 v 0 q -0.03175,-0.201083 -0.0635,-0.698498 l -0.02117,-0.338666 v -0.232832 q 0.02117,-0.275166 0.158749,-0.275166 h 0.03175 q 0.05292,0 0.08467,0.03175 0.07408,0.02117 0.105833,0.07408 l 0.02117,0.03175 0.03175,0.03175 0.03175,0.04233 q 0.04233,0.08467 0.09525,0.137583 -0.03175,-0.275166 0.07408,-0.465665 0.01058,-0.03175 0.03175,-0.04233 0.02117,-0.01058 0.03175,-0.02117 0.03175,-0.03175 0.0635,-0.03175 0.05292,0 0.07408,0.01058 0.105833,0.07408 0.105833,0.127 0,0.01058 -0.01058,0.03175 -0.01058,0.01058 -0.01058,0.03175 -0.07408,0.137583 -0.0635,0.349249 v 0.05292 q 0,0.07408 0.04233,0.285749 l 0.0635,0.232833 q 0.105833,0.465665 0.116416,0.613831 v 0.01058 q 0,0.04233 -0.05292,0.08467 -0.02117,0.01058 -0.08467,0.02117 -0.0635,0.01058 -0.09525,0 z m 0.328082,-1.301745 -0.02117,-0.116417 -0.02117,-0.201082 v -0.01058 q 0,-0.08467 0.08467,-0.169333 0.08467,-0.09525 0.306916,-0.105833 0.179916,-0.03175 0.359832,0.1905 0.116416,0.137583 0.222249,0.444498 0.09525,0.296333 0.105833,0.529165 0,0.169333 -0.04233,0.380999 -0.158749,0.391582 -0.582081,0.380999 -0.169333,0 -0.254,-0.211666 z m 0.687914,0.857247 q 0.05292,-0.1905 0.05292,-0.306916 -0.02117,-0.232832 -0.09525,-0.455082 -0.07408,-0.222249 -0.190499,-0.349249 -0.02117,-0.0635 -0.09525,-0.08467 l -0.02117,0.01058 q -0.01058,0.02117 -0.03175,0.03175 -0.02117,0 -0.05292,0.02117 l 0.02117,0.04233 q 0,0 0,0.02117 0.01058,0.01058 0,0.03175 v 0.02117 l 0.03175,0.116416 0.126999,1.05833 q 0,0 0,0 0.01058,0 0.01058,0.01058 0,0 0,0.02117 0.158749,0 0.243415,-0.190499 z" />
    </g>
  </g>
</svg>
