<?xml version="1.0" encoding="UTF-8" standalone="no"?>
<svg
   xmlns:dc="http://purl.org/dc/elements/1.1/"
   xmlns:cc="http://creativecommons.org/ns#"
   xmlns:rdf="http://www.w3.org/1999/02/22-rdf-syntax-ns#"
   xmlns:svg="http://www.w3.org/2000/svg"
   xmlns="http://www.w3.org/2000/svg"
   xmlns:sodipodi="http://sodipodi.sourceforge.net/DTD/sodipodi-0.dtd"
   xmlns:inkscape="http://www.inkscape.org/namespaces/inkscape"
   width="131"
   height="142"
   viewBox="0 0 34.660416 37.570832"
   version="1.1"
   id="svg8"
   inkscape:version="1.0 (4035a4fb49, 2020-05-01)"
   sodipodi:docname="senalogo.svg">
  <defs
     id="defs2">
    <filter
       id="filter602"
       inkscape:label="Drop Shadow"
       style="color-interpolation-filters:sRGB">
      <feFlood
         id="feFlood592"
         result="flood"
         flood-color="rgb(0,0,0)"
         flood-opacity="0.498039" />
      <feComposite
         id="feComposite594"
         result="composite1"
         operator="in"
         in2="SourceGraphic"
         in="flood" />
      <feGaussianBlur
         id="feGaussianBlur596"
         result="blur"
         stdDeviation="2.39521"
         in="composite1" />
      <feOffset
         id="feOffset598"
         result="offset"
         dy="1.79641"
         dx="0.898204" />
      <feComposite
         id="feComposite600"
         result="composite2"
         operator="over"
         in2="offset"
         in="SourceGraphic" />
    </filter>
  </defs>
  <sodipodi:namedview
     units="px"
     id="base"
     pagecolor="#ffffff"
     bordercolor="#666666"
     borderopacity="1.0"
     inkscape:pageopacity="0.0"
     inkscape:pageshadow="2"
     inkscape:zoom="2"
     inkscape:cx="374.88048"
     inkscape:cy="203.45396"
     inkscape:document-units="px"
     inkscape:current-layer="layer1"
     inkscape:document-rotation="0"
     showgrid="false"
     inkscape:window-width="1920"
     inkscape:window-height="1017"
     inkscape:window-x="1352"
     inkscape:window-y="-8"
     inkscape:window-maximized="1" />
  <metadata
     id="metadata5">
    <rdf:RDF>
      <cc:Work
         rdf:about="">
        <dc:format>image/svg+xml</dc:format>
        <dc:type
           rdf:resource="http://purl.org/dc/dcmitype/StillImage" />
        <dc:title></dc:title>
      </cc:Work>
    </rdf:RDF>
  </metadata>
  <g
     inkscape:label="Capa 1"
     inkscape:groupmode="layer"
     id="layer1">
    <path
       transform="matrix(0.14872,0,0,0.16506925,1.4775409,-2.7711661)"
       style="fill:#000000;stroke:none;stroke-width:0.163619;filter:url(#filter602)"
       d="m 105.52282,37.881114 c -4.98613,0.654624 -9.45997,1.980612 -13.253158,5.50826 -1.857078,1.727034 -3.329491,3.776382 -4.458134,6.039269 -4.691617,9.406145 -1.42038,21.4104 7.566898,26.986381 4.260155,2.643272 9.299304,3.574592 14.234874,2.909802 10.8838,-1.46619 18.39081,-11.653125 17.65632,-22.369696 -0.71191,-10.385554 -10.8905,-20.499287 -21.7468,-19.074016 M 30.585191,104.73195 H 18.640986 c 5.38e-4,4.90187 3.38211,7.37661 7.853725,8.40169 6.70937,1.53785 14.386059,1.34151 21.106888,-0.0246 3.250459,-0.6607 7.15556,-2.01857 8.620607,-5.26838 1.382751,-3.06736 -0.243954,-6.50845 -3.057554,-8.071993 -4.478584,-2.48865 -10.079929,-2.87331 -15.05297,-3.6955 -1.702786,-0.28143 -5.159409,-0.34999 -6.04868,-2.1426 -0.705196,-1.42202 1.461937,-2.1331 2.449052,-2.34237 2.570462,-0.54519 9.123413,-0.71928 9.489922,2.83569 h 7.526485 l 3.926863,-0.16363 c -0.291243,-1.56812 -0.451756,-2.97787 -1.525911,-4.253436 -1.46963,-1.74533 -3.844238,-2.53267 -6.000574,-3.015175 -4.611287,-1.03178 -9.861502,-1.35035 -14.562118,-0.79552 -1.528039,0.18048 -3.061642,0.21729 -4.581338,0.50559 -3.333257,0.632215 -7.575314,1.708995 -9.111422,5.104251 -1.44443,3.1927 0.121504,6.50779 3.057504,8.12992 4.438011,2.451673 9.980942,2.735063 14.889359,3.558223 1.580887,0.26508 5.826969,0.44014 6.307191,2.38951 0.381562,1.54946 -1.759068,2.21409 -2.871186,2.46623 -2.483088,0.56301 -5.770527,0.5082 -8.180966,-0.36029 -1.429539,-0.51508 -2.638851,-1.65174 -2.290672,-3.25766 M 62.327334,86.897436 V 114.05823 H 95.54205 v -5.89029 H 74.435162 v -5.23582 H 88.3428 c 0.92625,0 4.139073,0.49692 4.740378,-0.26229 0.294514,-0.37174 0.1682,-1.09689 0.1682,-1.53752 V 97.041817 H 74.435162 v -4.25409 H 94.723951 V 86.897436 H 62.327334 m 39.268626,0 v 27.160794 h 11.61697 V 95.896497 c 3.99051,4.07461 7.59259,8.622073 11.33587,12.925913 1.20604,1.38668 2.99652,4.45748 4.71338,5.13715 1.26363,0.50003 3.37677,0.0987 4.7304,0.0987 h 11.12611 V 86.897436 h -11.61697 v 17.998114 c -4.01146,-4.01178 -7.81822,-8.342783 -11.57018,-12.598683 -1.30192,-1.47666 -3.25176,-4.612266 -5.11898,-5.300771 -1.30487,-0.48104 -3.3596,-0.0987 -4.74497,-0.0987 h -10.47163 m 45.64978,27.160794 h 8.34457 c 1.02246,0 2.61874,0.30172 3.56936,-0.0987 1.763,-0.74282 1.64748,-4.24689 3.63235,-4.75788 1.69951,-0.43752 3.96891,-0.052 5.72422,-0.052 3.85978,0 7.76047,-0.1646 11.61697,0.003 2.33976,0.10177 2.01251,3.97104 3.82542,4.8068 0.97681,0.45029 2.79626,0.0987 3.86469,0.0987 h 9.48991 l -4.1412,-6.38115 -9.05796,-13.744013 -3.27239,-4.908586 -1.58056,-2.028385 -3.05477,-0.0987 h -7.03563 l -3.21905,0.16821 -1.62015,2.122455 -3.72529,5.399426 -9.54325,13.744023 -3.81724,5.72668 m 24.87013,-20.616023 5.72667,9.817153 h -11.94421 l 3.81544,-6.217533 2.4021,-3.59962 M 8.9874467,121.74827 l 0.163623,14.72574 c 14.7779773,0 29.5772903,-0.16362 44.3408233,-0.16362 3.47936,0 7.73592,-0.66675 11.126113,0.11142 1.406633,0.32282 2.789544,1.31943 3.357628,2.67011 1.104432,2.62592 -0.142511,4.63599 -1.418742,6.872 l -5.328919,9.3263 c -6.58175,11.57639 -13.217981,23.12202 -19.819365,34.68729 l -5.142718,8.99906 c -0.466802,0.82136 -1.870987,2.46901 -1.750237,3.436 0.126642,1.01445 1.770366,1.9569 2.45069,2.61955 1.657631,1.61655 3.415394,3.13004 5.072202,4.74496 1.022456,0.99807 2.133919,2.33648 3.436004,2.94351 l 34.335505,-59.3937 11.643309,-20.12517 6.542975,-11.45334 H 8.9874467 M 114.68551,121.912 c 0.85948,2.92192 3.16046,5.86477 4.67607,8.5082 3.28039,5.72209 6.53659,11.45793 9.81716,17.18002 8.08966,14.11086 16.10029,28.26687 24.18979,42.3774 4.26179,7.43371 9.23385,14.81899 12.85704,22.57945 3.13036,-1.80962 5.79376,-5.09019 8.50821,-7.47903 0.73301,-0.64629 2.63426,-1.80963 2.78152,-2.82898 0.13908,-0.95554 -1.25987,-2.63427 -1.73437,-3.436 -1.67054,-2.81834 -3.30837,-5.66058 -4.92804,-8.5082 -6.54527,-11.50554 -13.32909,-22.87627 -19.91279,-34.36006 -1.8489,-3.22492 -3.6978,-6.45559 -5.59284,-9.65353 -1.34217,-2.26466 -2.7987,-4.48988 -1.68576,-7.19926 0.5563,-1.35394 1.83351,-2.36822 3.25699,-2.69497 3.42211,-0.7852 7.77552,-0.0866 11.28973,-0.0866 14.78956,0 29.55129,0.16362 44.34083,0.16362 v -14.56214 h -87.86354 m -8.99907,15.05298 -12.36569,21.2705 -22.487015,38.61415 -8.575773,14.72573 -5.002824,8.67183 7.035627,3.4769 5.890294,2.74064 c 2.816544,-4.27047 5.264451,-8.842 7.855525,-13.25317 5.777726,-9.8368 11.573281,-19.66802 17.440013,-29.45147 1.888333,-3.14886 3.776014,-6.30573 5.603963,-9.48992 1.08987,-1.89847 2.32928,-3.83016 4.7695,-3.91966 2.63362,-0.0967 3.8714,1.75449 5.0722,3.75604 1.88718,3.14574 3.76112,6.3085 5.58759,9.48992 8.27734,14.41879 16.65645,28.85262 25.33645,43.03187 l 13.25316,-6.87201 c -0.81531,-2.23994 -2.44055,-4.34082 -3.66507,-6.38116 -2.35285,-3.92195 -4.70258,-7.84717 -7.03513,-11.78058 -7.35191,-12.39989 -14.76698,-24.76247 -22.15438,-37.14157 -3.64315,-6.10465 -7.35748,-12.17672 -10.92601,-18.32537 -1.65141,-2.84549 -3.27304,-6.87495 -5.63243,-9.16267 z"
       id="path24" />
  </g>
</svg>
